<?xml version="1.0" encoding="utf-8"?>
<svg xmlns="http://www.w3.org/2000/svg" xmlns:xlink="http://www.w3.org/1999/xlink" version= "1.1" width="1809px" height="1397px" viewBox="-260 224 1809 1397">
<g id="layer1">
<g style="fill:rgb(252,184,38); fill-opacity:1.0; stroke-linejoin: miter">
<path d="M-260.001,222.22484C-260.47153,222.22484,-260.9228,222.41176,-261.25552,222.74448C-261.58826,223.0772,-261.77515,223.52846,-261.77515,223.999L-261.77414,1621.0C-261.77414,1621.9799,-260.97983,1622.7742,-260.0,1622.7742L1549.001,1622.7751C1549.4716,1622.7751,1549.9227,1622.5883,1550.2555,1622.2555C1550.5883,1621.9227,1550.7751,1621.4716,1550.7751,1621.001L1550.7742,224.0C1550.7742,223.02016,1549.9799,222.22585,1549.0,222.22585L-260.001,222.22484 Z"/>
</g>
<g style="fill:rgb(0,0,0); fill-opacity:0.25490198; stroke-linejoin: miter">
<path d="M1349.5391,1394.1367L1343.4237,1395.5287Q1324.1016,1397.399,1271.6996,1398.9368Q1245.4983,1399.7046,1211.0271,1400.3905Q1198.9602,1400.7852,1089.006,1402.2588Q994.6051,1403.3799,885.3046,1403.9076Q830.65393,1404.1725,772.2783,1404.2877Q745.41895,1404.4385,588.7707,1404.303Q440.91324,1403.8215,417.86038,1403.5732Q364.96426,1403.2355,317.5005,1402.7711Q222.57286,1401.8419,149.37407,1400.4056Q-14.053146,1396.93,13.639667,1393.1843Q25.811552,1391.3188,73.901215,1389.7421Q97.946144,1388.9546,130.97049,1388.2393Q142.40254,1387.8278,249.18314,1386.2711Q426.64322,1383.9718,679.6679,1383.8751Q806.1804,1383.9238,913.8016,1384.5228Q967.6126,1384.8229,1016.70044,1385.2603Q1135.2882,1386.4731,1153.3386,1386.8806Q1237.3461,1388.1677,1285.4364,1389.7435Q1309.4814,1390.5325,1324.5464,1391.3922Q1354.3533,1393.607,1349.5391,1394.1367"/>
</g>
<g style="fill:rgb(68,197,229); fill-opacity:1.0; stroke-linejoin: miter">
<path d="M202.52666,686.89044C202.50209,686.89044,202.47742,686.8913,202.45314,686.8931L202.45163,686.8937C187.18982,686.9313,175.5091,698.712,175.5091,713.9822L175.50935,1259.8978C175.50935,1275.1931,187.23201,1286.9132,202.52435,1286.9482L202.5271,1286.9502L1135.0713,1286.915L1135.0709,1286.9158C1150.3657,1286.915,1162.0891,1275.1938,1162.0891,1259.8984L1162.0889,713.9802C1162.0889,698.7085,1150.4059,686.925,1135.138,686.92456L1135.0956,686.92523C1135.0894,686.92456,1135.0804,686.92456,1135.067,686.92456L202.52666,686.89044 Z"/>
</g>
<g style="fill:rgb(34,43,50); fill-opacity:1.0; stroke-linejoin: miter">
<path d="M202.52666,653.2612C169.1992,653.2612,141.87743,680.65216,141.87752,713.98L141.87767,1259.8978C141.87767,1293.2247,169.19987,1320.5471,202.5273,1320.5471L1135.071,1320.5818C1168.3986,1320.548,1195.7207,1293.2252,1195.7207,1259.8988L1195.7203,713.98224C1195.7206,680.65454,1168.399,653.2633,1135.071,653.2633L202.52666,653.2972 Z M202.52666,687.9936L1135.071,688.0275C1149.7571,687.9936,1160.986,699.28973,1160.986,713.9802L1160.9861,1259.8984C1160.9861,1274.5841,1149.7568,1285.8123,1135.0709,1285.8123L202.5271,1285.8458C187.84137,1285.8118,176.6124,1274.5831,176.6124,1259.8978L176.61203,713.9822C176.61192,699.29193,187.841,687.99567,202.52666,687.99567 Z"/>
</g>
<g style="fill:rgb(0,0,0); fill-opacity:1.0; stroke-linejoin: miter">
<path d="M582.0522,1344.4689L755.54614,1344.5033C758.22253,1344.4688,760.3779,1346.6226,760.3779,1349.303C760.3779,1351.9791,758.22253,1354.1355,755.54614,1354.1355L582.0522,1354.1697C579.3752,1354.1348,577.22015,1351.9813,577.22015,1349.3026C577.22015,1346.6268,579.3752,1344.4689,582.0522,1344.4689 Z"/>
</g>
<g style="fill:rgb(215,237,249); fill-opacity:1.0; stroke-linejoin: miter">
<path d="M787.98865,1468.9233L787.98865,1468.9237L787.98865,1468.9249L787.98865,1468.9233"/>
</g>
<g style="fill:rgb(255,183,159); fill-opacity:1.0; stroke-linejoin: miter">
<path d="M1078.416,1361.7177L1078.416,1361.7194L1078.4159,1361.721L1078.416,1361.7177"/>
</g>
<g style="fill:rgb(34,43,50); fill-opacity:1.0; stroke-linejoin: miter">
<path d="M86.32441,1330.5737C86.32441,1367.2372,111.64205,1396.7653,143.07993,1396.7653L1194.5194,1396.8008C1225.9563,1396.7662,1251.2742,1367.2418,1251.2744,1330.5742L86.324104,1330.6074 Z"/>
</g>
<g style="fill:rgb(255,255,255); fill-opacity:1.0; stroke-linejoin: miter">
<path d="M343.16574,711.98914L612.673,672.13184L882.18146,632.27435Q917.124,868.5485,952.06635,1104.8218L413.0528,1184.5369Q378.10934,948.26355,343.16574,711.98914"/>
</g>
<g>
<g style="fill:rgb(113,207,235); fill-opacity:1.0; stroke-linejoin: miter">
<path d="M651.7995,765.2614C645.2735,772.1649,636.4887,777.0193,626.38446,778.5136C616.5315,779.97064,606.94775,778.0098,598.83325,773.53345C575.6009,780.9005,560.4725,804.2253,564.15326,829.11365C568.2395,856.7434,587.97864,835.46906,615.6048,831.3831L655.95966,825.4166C683.58734,821.3292,708.64087,835.97894,704.5547,808.3494C700.7004,782.28754,677.5985,763.83563,651.7995,765.2614 Z"/>
</g>
<g style="fill:rgb(113,207,235); fill-opacity:1.0; stroke-linejoin: miter">
<path d="M627.50214,772.39874C648.2272,769.3337,662.5925,749.97797,659.5273,729.2515C656.4622,708.52637,637.1093,694.15765,616.38434,697.2227C595.6596,700.2878,581.2929,719.64374,584.35803,740.3686C587.42474,761.0949,606.7791,775.46356,627.50214,772.39874 Z"/>
</g>
</g>
<g>
<g style="fill:rgb(201,214,222); fill-opacity:1.0; stroke-linejoin: miter">
<path d="M463.47134,895.99896L641.87915,869.61475L820.2875,843.2305Q825.4242,877.9639,830.56085,912.6971Q652.15295,939.0825,473.74536,965.4676Q468.60834,930.73334,463.47134,895.99896"/>
</g>
<g>
<g>
<g style="fill:rgb(34,43,50); fill-opacity:1.0; stroke-linejoin: miter">
<path d="M508.23785,904.9779L510.4926,920.2239L495.92877,917.7955L494.1242,928.8306L508.688,931.25885L501.54352,944.91656L511.2491,950.1253L518.58466,936.2104L529.3765,947.2153L537.4163,939.61145L527.17224,929.21265L540.6008,922.41547L535.71246,912.59924L521.61127,919.49603L519.2239,903.3533 Z"/>
</g>
</g>
<g>
<g style="fill:rgb(34,43,50); fill-opacity:1.0; stroke-linejoin: miter">
<path d="M564.71405,896.62573L566.9689,911.8717L552.40497,909.4433L550.6004,920.47845L565.16425,922.9067L558.0198,936.5644L567.72534,941.77313L575.0608,927.85815L585.8527,938.86304L593.89246,931.25916L583.64844,920.8604L597.0771,914.0633L592.18866,904.24695L578.08746,911.1437L575.7001,895.0009 Z"/>
</g>
</g>
<g>
<g style="fill:rgb(34,43,50); fill-opacity:1.0; stroke-linejoin: miter">
<path d="M621.1904,888.2735L623.4451,903.5196L608.88116,901.0912L607.07666,912.1262L621.6404,914.5544L614.496,928.2122L624.2015,933.4209L631.5371,919.50604L642.329,930.5108L650.3688,922.907L640.1248,912.5083L653.55334,905.71094L648.6649,895.8948L634.5637,902.79156L632.1764,886.6487 Z"/>
</g>
</g>
<g>
<g style="fill:rgb(34,43,50); fill-opacity:1.0; stroke-linejoin: miter">
<path d="M677.6666,879.92114L679.9214,895.16724L665.3575,892.73883L663.5529,903.774L678.11664,906.20215L670.97217,919.85986L680.67773,925.06866L688.0133,911.1537L698.80524,922.1586L706.84503,914.5548L696.60095,904.15594L710.02966,897.35876L705.14124,887.54254L691.04004,894.4393L688.65265,878.29645 Z"/>
</g>
</g>
</g>
</g>
<g>
<g style="fill:rgb(201,214,222); fill-opacity:1.0; stroke-linejoin: miter">
<path d="M476.98944,987.40344L833.8053,934.6354L844.07874,1004.1019L487.26343,1056.8721L476.98944,987.40344"/>
</g>
<g>
<g style="fill:rgb(34,43,50); fill-opacity:1.0; stroke-linejoin: miter">
<path d="M521.6058,989.68335L523.86053,1004.92944L509.2967,1002.50104L507.49207,1013.5361L522.0559,1015.9643L514.9114,1029.622L524.617,1034.8309L531.9526,1020.91595L542.7443,1031.9209L550.7841,1024.3168L540.5401,1013.918L553.9687,1007.12085L549.0803,997.3047L534.97925,1004.2015L532.5918,988.05865 Z"/>
</g>
</g>
<g>
<g style="fill:rgb(34,43,50); fill-opacity:1.0; stroke-linejoin: miter">
<path d="M578.0819,981.3312L580.33673,996.5773L565.7729,994.14886L563.96826,1005.1839L578.53204,1007.6122L571.3875,1021.2698L581.09314,1026.4786L588.42865,1012.56366L599.2206,1023.56866L607.2603,1015.96454L597.0163,1005.5659L610.4449,998.7687L605.5565,988.9526L591.4553,995.84924L589.06793,979.7064 Z"/>
</g>
</g>
<g>
<g style="fill:rgb(34,43,50); fill-opacity:1.0; stroke-linejoin: miter">
<path d="M634.5581,972.97906L636.81287,988.22504L622.249,985.7966L620.4444,996.8316L635.0082,999.2599L627.8637,1012.9176L637.56934,1018.1264L644.9049,1004.21155L655.6968,1015.2164L663.73645,1007.61237L653.4925,997.2138L666.921,990.4164L662.03265,980.6004L647.9315,987.4971L645.5441,971.3544 Z"/>
</g>
</g>
</g>
<g>
<g style="fill:rgb(0,188,233); fill-opacity:1.0; stroke-linejoin: miter">
<path d="M562.7415,1074.9923L669.909,1059.1439L777.07666,1043.2954Q781.45856,1072.9246,785.8404,1102.5537Q678.6728,1118.4028,571.5055,1134.252Q567.1235,1104.6222,562.7415,1074.9923"/>
</g>
<g>
<g style="fill:rgb(255,255,255); fill-opacity:1.0; stroke-linejoin: miter">
<path d="M689.2443,1065.1993Q688.77,1065.2694,688.12964,1065.4082Q687.4892,1065.547,686.94147,1065.7162Q686.9253,1066.2032,686.9715,1066.8134Q687.0608,1067.4169,687.1309,1067.8912Q687.2011,1068.3656,687.33344,1068.9628Q687.4227,1069.5665,687.5855,1070.0712Q688.1588,1070.0746,688.81195,1070.0221Q689.4651,1069.9695,689.98254,1069.893Q690.45685,1069.8229,691.0972,1069.684Q691.6945,1069.5516,692.19916,1069.3888Q692.2089,1068.8588,692.1627,1068.2485Q692.0734,1067.6449,692.0033,1067.1707Q691.9331,1066.6963,691.8008,1066.099Q691.7115,1065.4955,691.5551,1065.0338Q691.0249,1065.024,690.37177,1065.0765Q689.71857,1065.1292,689.2443,1065.1993 Z M672.5192,1079.9221Q674.8476,1079.5776,676.1664,1080.7485Q677.4787,1081.876,677.7848,1083.9458Q678.08453,1085.9724,677.1548,1087.4319Q676.225,1088.8911,673.8966,1089.2355Q671.56824,1089.5798,670.2558,1088.4521Q668.9865,1087.3177,668.68677,1085.2913Q668.3807,1083.2216,669.3042,1081.7195Q670.1909,1080.2664,672.5192,1079.9221 Z M648.64575,1083.849Q651.6209,1083.409,653.3627,1085.3545Q655.0981,1087.257,655.66565,1091.0946Q656.2332,1094.9321,655.1291,1097.2986Q654.025,1099.6648,651.04987,1100.1047Q648.0747,1100.5448,646.3329,1098.5994Q644.6343,1096.6475,644.0668,1092.8098Q643.49915,1088.9723,644.60315,1086.6058Q645.6706,1084.2891,648.64575,1083.849 Z M686.452,1075.2178Q686.4168,1075.5756,686.44385,1076.0563Q686.4645,1076.4938,686.52826,1076.9249Q686.59204,1077.3561,686.7053,1077.8241Q686.8122,1078.2489,686.9494,1078.581L689.75214,1078.1666L692.526,1096.9231Q693.01306,1096.9391,693.62305,1096.893Q694.19006,1096.8531,694.62115,1096.7894Q695.09546,1096.7192,695.69275,1096.5869Q696.24695,1096.4608,696.7085,1096.3044L693.4372,1074.1847 Z M711.3843,1071.0017Q710.0476,1071.1995,708.9839,1071.7534Q707.9138,1072.2642,707.1408,1072.9954Q706.36127,1073.6835,705.77985,1074.5184Q705.24146,1075.3472,704.91864,1076.1439Q704.81024,1075.4109,704.515,1074.309Q704.2263,1073.2501,704.0013,1072.6224Q703.5143,1072.6064,703.07666,1072.6271Q702.68225,1072.6414,702.2079,1072.7114Q701.73364,1072.7816,701.26575,1072.8949Q700.84094,1073.0017,700.37933,1073.1581L703.65063,1095.2778Q704.1377,1095.294,704.74774,1095.2477Q705.3577,1095.2017,705.8321,1095.1315Q706.30634,1095.0614,706.9036,1094.9288Q707.4578,1094.8029,707.9194,1094.6466L706.26135,1083.4359Q705.9616,1081.4093,706.2622,1079.8667Q706.5261,1078.3735,707.2114,1077.3468Q707.8969,1076.3203,708.911,1075.7297Q709.9253,1075.1392,711.13257,1074.9606Q713.2023,1074.6544,714.3677,1075.9802Q715.52655,1077.2627,715.9794,1080.3241L717.8797,1093.1735Q718.36676,1093.1896,718.97675,1093.1433Q719.5438,1093.1039,720.01807,1093.0337Q720.4924,1092.9635,721.08966,1092.831Q721.6869,1092.6987,722.1485,1092.5424L720.07605,1078.5287Q719.44476,1074.2601,717.3086,1072.329Q715.1787,1070.4407,711.3843,1071.0017 Z M626.9859,1074.1422Q626.5116,1074.2124,625.9143,1074.3447Q625.3601,1074.4707,624.8986,1074.6271L628.72473,1100.4984Q628.9798,1102.2231,629.6263,1103.3171Q630.27277,1104.4114,631.194,1104.98Q632.1153,1105.5486,633.2379,1105.691Q634.3605,1105.8334,635.61096,1105.6484Q636.34393,1105.54,637.19354,1105.3262Q638.04956,1105.1558,638.62134,1104.8508Q638.3599,1103.0831,637.74866,1101.6312Q637.41644,1101.7684,636.90546,1101.8883Q636.4375,1102.0013,636.04944,1102.0588Q635.4889,1102.1417,634.95233,1102.0889Q634.4653,1102.0728,634.01984,1101.7421Q633.62384,1101.4481,633.3062,1100.7902Q632.9886,1100.1322,632.81,1098.9248L629.12415,1074.0022Q628.6371,1073.9861,628.02716,1074.0322Q627.46014,1074.072,626.9859,1074.1422 Z M648.1292,1080.3563Q645.54205,1080.739,643.73566,1081.9315Q641.92926,1083.124,640.8653,1084.8676Q639.8014,1086.6112,639.4669,1088.8196Q639.1758,1091.0217,639.53925,1093.4795Q639.9027,1095.9373,640.86206,1097.9543Q641.7782,1099.9778,643.3013,1101.3389Q644.8244,1102.6997,646.8986,1103.3184Q648.9665,1103.8937,651.5536,1103.5111Q654.1407,1103.1284,655.94714,1101.9362Q657.76,1100.7866,658.824,1099.0432Q659.888,1097.2997,660.2222,1095.0912Q660.5135,1092.889,660.14996,1090.4313Q659.78644,1087.9735,658.8272,1085.9563Q657.91113,1083.9329,656.388,1082.572Q654.86487,1081.2109,652.79065,1080.5927Q650.71625,1079.9738,648.1292,1080.3563 Z M673.3593,1100.3287Q673.4325,1100.3179,673.5074,1100.3085L678.4356,1099.6677Q680.64105,1099.3856,681.5623,1099.9545Q682.4836,1100.5231,682.6749,1101.8168Q682.93,1103.5415,681.16187,1104.9927Q679.3873,1106.4008,675.93787,1106.9109Q674.7737,1107.0831,673.7564,1107.0573Q672.7887,1107.0681,671.99817,1106.7883Q671.2573,1106.5455,670.78,1105.9993Q670.3026,1105.4529,670.16235,1104.5044Q669.93915,1102.9951,670.7715,1101.7705Q671.5302,1100.5991,673.3593,1100.3287 Z M672.06,1076.8174Q669.9042,1077.1364,668.3117,1077.9885Q666.71936,1078.841,665.7146,1080.0912Q664.7466,1081.2917,664.3534,1082.804Q663.96014,1084.316,664.20245,1085.9545Q664.4958,1087.9379,665.5941,1089.4059Q666.68604,1090.8306,668.2557,1091.6119Q667.1822,1092.6959,666.6214,1093.9686Q666.1037,1095.2347,666.33966,1096.8302Q666.5246,1098.0806,667.2558,1098.8536Q667.93744,1099.5898,668.8827,1100.023Q667.4947,1101.0654,666.7566,1102.6287Q666.012,1104.1489,666.27344,1105.9167Q666.7135,1108.8918,669.246,1109.9274Q671.77844,1110.9628,676.21967,1110.306Q678.7637,1109.9298,680.8798,1109.044Q682.95917,1108.2078,684.4015,1106.9369Q685.8502,1105.7092,686.5453,1104.1525Q687.24677,1102.6385,686.9853,1100.8708Q686.5835,1098.1542,684.6292,1096.857Q682.6749,1095.5599,678.82465,1096.0413L673.07715,1096.8032Q671.1304,1097.047,670.4805,1096.5262Q669.8371,1096.0485,669.72235,1095.2725Q669.60114,1094.4531,670.0964,1093.6307Q670.5549,1092.858,671.10754,1092.4238Q672.5879,1092.6016,674.3557,1092.3401Q676.2961,1092.0532,677.8517,1091.2502Q679.41364,1090.4905,680.46796,1089.277Q681.4855,1088.1132,681.9218,1086.5946Q682.3581,1085.0759,682.0967,1083.3081Q681.93085,1082.187,681.5446,1081.3629Q681.1584,1080.5391,680.5757,1079.8761L684.45636,1079.3022Q684.46606,1078.772,684.4327,1078.2483Q684.39923,1077.7244,684.3291,1077.2501Q684.18243,1076.2583,683.8888,1075.4646Q682.1209,1075.7261,680.72504,1076.4172Q679.3228,1077.0652,678.56244,1077.8827Q677.31384,1077.186,675.63556,1076.8616Q674.0004,1076.5305,672.06,1076.8174 Z"/>
</g>
</g>
</g>
<g style="fill:rgb(0,0,0); fill-opacity:1.0; stroke-linejoin: miter">
<path d="M819.94604,224.82025L794.1938,224.82034L792.671,413.9903Q793.627,425.77,805.5485,426.97055Q817.239,425.8914,818.4218,414.1988L819.94604,224.82025 Z"/>
</g>
<g style="fill:rgb(0,0,0); fill-opacity:1.0; stroke-linejoin: miter">
<path d="M746.77783,465.06696L746.77783,465.06818C746.77783,494.86304,770.9326,519.01807,800.729,519.0185L800.729,519.0197C830.5254,519.0185,854.67993,494.86444,854.68005,465.06763L854.68005,465.0691C854.68005,435.27118,830.5254,411.1165,800.7291,411.11612L800.7291,411.11758C770.93274,411.1158,746.7779,435.27026,746.77783,465.06696L746.77783,465.06818 M772.52966,465.06696L772.52966,465.06842C772.52966,449.49298,785.1549,436.86774,800.72906,436.86786L800.72906,436.8692C816.3031,436.86823,828.92834,449.4934,828.92834,465.06763L828.92834,465.06885C828.9282,480.6418,816.3031,493.26678,800.729,493.26654L800.729,493.26776C785.1549,493.26654,772.52966,480.6409,772.52966,465.06696 Z"/>
</g>
<g style="fill:rgb(0,0,0); fill-opacity:1.0; stroke-linejoin: miter">
<path d="M788.26495,515.9965L788.26495,515.998L788.26495,515.9982L788.26514,515.92474L786.7703,777.04895L800.2681,764.26154C765.7587,762.5924,741.50183,760.4457,732.12103,749.9315L732.12103,749.93274C723.1219,739.8449,724.87195,718.00287,729.1225,685.4358C730.0428,678.3845,725.0727,671.92194,718.02136,671.0018C710.97,670.08136,704.50775,675.0513,703.58734,682.10254L703.58734,682.104C700.11456,708.7111,694.1414,746.0444,712.9058,767.07556L712.9058,767.077C731.288,787.6787,770.2831,788.59326,799.02386,789.9833C802.5298,790.1532,805.953,788.88416,808.50116,786.46985C811.0493,784.056,812.5015,780.7064,812.5216,777.1964L812.5216,777.1979L814.0165,516.07245L814.0166,515.9987L814.0166,515.99677C814.0167,508.88544,808.25195,503.12103,801.14075,503.1208C794.0296,503.1208,788.26495,508.88544,788.26495,515.9965 Z"/>
</g>
<g style="fill:rgb(0,0,0); fill-opacity:1.0; stroke-linejoin: miter">
<path d="M702.0523,697.06366L706.53735,634.6863L711.0225,572.3091Q740.3691,640.9307,769.7158,709.5517L702.0523,697.06366"/>
</g>
<g style="fill:rgb(255,255,255); fill-opacity:1.0; stroke-linejoin: miter">
<path d="M844.8633,790.26587L844.86334,790.26587Q842.20593,714.6774,839.54834,639.08887Q805.0149,643.8831,770.48145,648.6774L844.8633,790.26587"/>
</g>
</g>
</svg>